<?xml version="1.0" encoding="utf-8"?>
<!-- Generator: Adobe Illustrator 23.0.0, SVG Export Plug-In . SVG Version: 6.00 Build 0)  -->
<svg version="1.1" id="Layer_1" xmlns="http://www.w3.org/2000/svg" xmlns:xlink="http://www.w3.org/1999/xlink" x="0px" y="0px"
	 viewBox="0 0 1000 1000" style="enable-background:new 0 0 1000 1000;" xml:space="preserve">
<style type="text/css">
	.st0{fill:#FFFFFF;}
</style>
<g>
	<path class="st0" d="M211.2,819.6l-48.3,53.5c48.6,43.8,104.7,77.4,166.8,99.6c19.7,7.1,40.1,13,60.6,17.5l15.7-70.3
		c-17.5-3.9-35-9-52-15.1C300.8,885.8,252.7,857.1,211.2,819.6z"/>
	<path class="st0" d="M396.4,83.9L379.2,14c-84,20.7-161.7,63-224.6,122.2l49.4,52.4C257.9,137.8,324.4,101.6,396.4,83.9z"/>
	<path class="st0" d="M94.6,356.1c12.8-35.8,30.2-69.6,51.7-100.6l-59.2-41.1C62,250.6,41.7,290.1,26.8,331.8
		c-14.3,39.9-23.5,81.3-27.3,123l71.8,6.6C74.5,425.8,82.3,390.3,94.6,356.1z"/>
	<path class="st0" d="M0.6,558.1c9.9,85.8,42.1,168.2,93.1,238.2l58.2-42.4c-43.8-60-71.3-130.6-79.8-204L0.6,558.1z"/>
	<path class="st0" d="M997.6,454.2c-0.5-5-1.2-9.9-1.8-14.8c-0.8-6.1-1.2-12.3-2.2-18.4L993,421c-5.5-34.5-14.5-67.8-26.8-99.6
		l0.4-0.2c-0.6-1.6-1.5-3.1-2.2-4.7c-14.5-36.6-33.2-71.1-55.5-103c-3.7-5.3-7.7-10.3-11.6-15.5c-7.8-10.2-15.9-20.1-24.4-29.7
		c-4.9-5.5-9.7-11-14.8-16.3c-10.8-11.1-22.1-21.7-33.9-31.8c-2.4-2.1-4.5-4.5-7-6.6l-0.1,0.1c-26.5-21.9-55.5-40.8-86.2-57l0.1-0.2
		c-1.8-0.9-3.8-1.5-5.7-2.5C708.4,45.5,691,38,673.1,31.3c-1.9-0.7-3.6-1.7-5.4-2.4c-2.1-0.8-4.3-1.2-6.4-2
		c-10.1-3.5-20.3-6.6-30.7-9.4c-5.5-1.5-10.9-2.9-16.4-4.2c-9.5-2.3-19.1-4.2-28.8-5.9c-6.9-1.2-13.9-2.3-20.9-3.2
		c-8.6-1.1-17.2-2.1-25.9-2.8c-8-0.6-16.1-1-24.2-1.2c-5.3-0.2-10.4-0.8-15.7-0.8V0c-5.7,0-11.4-0.4-17.1-0.2l2.5,72
		c9.4-0.3,18.9,0,28.3,0.3c6.8,0.2,13.5,0.5,20.2,1c7.6,0.6,15.2,1.5,22.8,2.5c5.8,0.8,11.5,1.6,17.2,2.6c8.5,1.5,17,3.2,25.4,5.2
		c4.4,1.1,8.8,2.2,13.2,3.4c9.2,2.5,18.3,5.3,27.3,8.4c3,1,6,2.2,9,3.3c15.7,5.8,31.1,12.5,46,20.1c29.9,15.3,57.7,33.8,83,55.4
		c10.5,8.9,20.6,18.4,30.2,28.3c4.2,4.3,8.1,8.8,12.1,13.3c7.6,8.5,14.8,17.3,21.7,26.4c3.1,4.1,6.3,8.2,9.3,12.4
		c19.3,27.6,35.5,57.3,47.9,88.9c13.2,33.3,22.3,68.6,26.8,105.4c0.5,4,1.1,8,1.4,12c1.2,13.2,2,26.5,2,40c0,13.8-0.8,27.5-2.1,41
		c-0.4,4.3-1.1,8.5-1.7,12.7c-1.1,8.9-2.4,17.7-4,26.3c-1.1,5.7-2.4,11.4-3.8,17.1c-1.6,7.1-3.4,14.1-5.4,21
		c-1.7,6.1-3.6,12.1-5.6,18.1c-1.8,5.3-3.8,10.5-5.8,15.7c-4.5,11.8-9.5,23.4-15,34.7c-2.1,4.3-4,8.8-6.3,13
		c-7.4,14-15.5,27.7-24.3,40.8c-3.2,4.8-7,9.2-10.4,13.9c-6.1,8.3-12.3,16.4-19,24.2c-5,5.8-10.2,11.4-15.4,17
		c-6.2,6.6-12.7,12.8-19.4,19c-25.8,23.9-54.2,44.9-85.3,62c-14.4,7.9-29.3,14.8-44.4,21c-3.6,1.5-7.3,2.6-11,4
		c-12,4.5-24.1,8.5-36.4,11.9c-4.8,1.3-9.6,2.6-14.4,3.7c-11.6,2.8-23.3,4.9-35.1,6.8c-5.1,0.8-10.1,1.7-15.3,2.3
		c-14,1.6-28.1,2.5-42.2,2.7c-2.4,0-4.7,0.4-7.1,0.4v0.1l-4.8,0l-0.9,72l5.8,0c2.4,0,4.8-0.4,7.1-0.5c17.1-0.2,33.9-1.3,50.5-3.2
		c5.9-0.7,11.7-1.8,17.5-2.7c13.9-2.1,27.7-4.7,41.2-7.9c5.6-1.4,11.2-2.8,16.8-4.3c14.4-4,28.5-8.6,42.3-13.8
		c4.4-1.6,8.8-3.1,13.1-4.8c17.7-7.2,35-15.2,51.6-24.4c0.7-0.4,1.4-0.6,2-1l-0.1-0.2c30.3-16.8,58.5-36.8,84.5-59.2l0.5,0.5
		c4.8-4.1,8.8-8.9,13.4-13.1c7.5-7,14.8-14.1,21.9-21.5c6.3-6.6,12.4-13.2,18.3-20.1c7.8-9.1,15-18.6,22.1-28.2
		c4-5.4,8.3-10.6,12.1-16.2c10.4-15.3,19.8-31.3,28.4-47.8c2.6-4.9,4.8-10,7.2-15c6.5-13.3,12.3-26.8,17.6-40.7
		c1.1-2.9,2.6-5.5,3.6-8.4c1.2-3.3,2-6.6,3.1-9.9c2.3-7,4.5-14,6.5-21c2.3-8.2,4.4-16.4,6.4-24.6c1.5-6.6,3.1-13.2,4.4-20
		c1.9-10.2,3.4-20.4,4.7-30.6c0.6-5.1,1.5-10,2-15.1c1.5-15.8,2.5-31.7,2.5-47.7C1000,485.3,999.1,469.7,997.6,454.2z"/>
	<path class="st0" d="M707.2,474.7L450.1,285.5c-22.2-16.3-53.6-0.5-53.6,27.1V691c0,27.6,31.4,43.5,53.6,27.1l257.1-189.2
		C725.5,515.5,725.5,488.1,707.2,474.7z"/>
</g>
</svg>
