<?xml version="1.0" encoding="utf-8"?>
<!-- Generator: Adobe Illustrator 23.0.0, SVG Export Plug-In . SVG Version: 6.00 Build 0)  -->
<svg version="1.1" id="Layer_1" xmlns="http://www.w3.org/2000/svg" xmlns:xlink="http://www.w3.org/1999/xlink" x="0px" y="0px"
	 viewBox="0 0 1920 525" style="enable-background:new 0 0 1920 525;" xml:space="preserve">
<style type="text/css">
	.st0{fill:#231F20;}
</style>
<g>
	<path class="st0" d="M82.3,57.1c-12.2,0-21.1,9.3-25.3,14.9c-8.8,11.6-13.9,28.1-13.9,45.2v276.4c0,17.1,5.1,33.6,13.9,45.2
		c4.2,5.5,13.1,14.9,25.3,14.9h384.6c12.2,0,21.1-9.3,25.3-14.9c8.8-11.6,13.9-28.1,13.9-45.2V117.1c0-17.1-5.1-33.6-13.9-45.2
		c-4.2-5.5-13.1-14.9-25.3-14.9H82.3 M82.3,30.4h384.6c36.4,0,65.8,38.8,65.8,86.7v276.4c0,47.9-29.5,86.7-65.8,86.7H82.3
		c-36.4,0-65.8-38.8-65.8-86.7V117.1C16.5,69.2,45.9,30.4,82.3,30.4z"/>
	<path class="st0" d="M277.4,395.2L96,213.8l100.1-100.1l81.3,81.3l81.3-81.3l100.1,100.1L277.4,395.2z M133.7,213.8l143.7,143.7
		l143.7-143.7l-62.4-62.4l-81.3,81.3l-81.3-81.3L133.7,213.8z"/>
	<g>
		<path class="st0" d="M724.6,397.1c-15.9,0-30.2-2.7-43.1-8.2c-12.8-5.5-23.8-13.1-33-22.9c-9.1-9.8-16.1-21.4-21.1-34.9
			c-4.9-13.5-7.4-28.2-7.4-44.2v-8.9c0-18.5,2.8-35.1,8.3-49.7c5.6-14.6,13-26.9,22.2-36.9c9.3-10,19.9-17.6,31.8-22.9
			c11.9-5.3,24.4-7.9,37.3-7.9c16.3,0,30.3,2.8,42.1,8.5c11.8,5.7,21.5,13.5,29.2,23.5c7.6,10,13.3,21.8,16.9,35.4
			c3.7,13.6,5.5,28.4,5.5,44.4v17.5H659.1c0.3,10.5,2,20.4,5.2,29.5c3.2,9.1,7.6,17.1,13.5,23.8c5.8,6.7,12.8,12.1,21.1,16
			c8.2,3.9,17.5,5.9,27.9,5.9c13.8,0,25.4-2.8,35-8.4c9.5-5.6,17.9-13.1,25.1-22.3l23.8,18.5c-3.7,5.6-8.1,11.1-13.3,16.3
			c-5.2,5.3-11.3,10-18.2,14.1c-7,4.1-14.9,7.4-23.9,9.9C746.2,395.8,736,397.1,724.6,397.1z M719.8,192.8c-7.9,0-15.1,1.4-21.7,4.3
			c-6.6,2.9-12.5,7.1-17.7,12.5c-5.2,5.5-9.5,12.3-13,20.4c-3.4,8.1-5.8,17.5-7.1,28h114.2v-2.9c-0.4-7.6-1.6-15.1-3.7-22.5
			c-2-7.4-5.2-14.1-9.5-20c-4.3-5.9-9.8-10.7-16.5-14.3C738.1,194.6,729.7,192.8,719.8,192.8z"/>
		<path class="st0" d="M956.1,397.1c-15.9,0-30.2-2.7-43.1-8.2c-12.8-5.5-23.8-13.1-33-22.9c-9.1-9.8-16.1-21.4-21.1-34.9
			c-4.9-13.5-7.4-28.2-7.4-44.2v-8.9c0-18.5,2.8-35.1,8.3-49.7c5.6-14.6,13-26.9,22.2-36.9c9.3-10,19.9-17.6,31.8-22.9
			c11.9-5.3,24.4-7.9,37.3-7.9c16.3,0,30.3,2.8,42.1,8.5c11.8,5.7,21.5,13.5,29.2,23.5c7.6,10,13.3,21.8,16.9,35.4
			s5.5,28.4,5.5,44.4v17.5H890.6c0.3,10.5,2,20.4,5.2,29.5c3.2,9.1,7.6,17.1,13.5,23.8c5.8,6.7,12.8,12.1,21.1,16
			c8.2,3.9,17.5,5.9,27.9,5.9c13.8,0,25.4-2.8,35-8.4c9.5-5.6,17.9-13.1,25.1-22.3l23.8,18.5c-3.7,5.6-8.1,11.1-13.3,16.3
			c-5.2,5.3-11.3,10-18.2,14.1c-7,4.1-14.9,7.4-23.9,9.9C977.7,395.8,967.5,397.1,956.1,397.1z M951.3,192.8
			c-7.9,0-15.1,1.4-21.7,4.3c-6.6,2.9-12.5,7.1-17.7,12.5c-5.2,5.5-9.5,12.3-13,20.4c-3.4,8.1-5.8,17.5-7.1,28h114.2v-2.9
			c-0.4-7.6-1.6-15.1-3.7-22.5c-2-7.4-5.2-14.1-9.5-20c-4.3-5.9-9.8-10.7-16.5-14.3C969.6,194.6,961.3,192.8,951.3,192.8z"/>
		<path class="st0" d="M1083.6,277c0-17.4,2.1-33.2,6.4-47.5c4.3-14.2,10.3-26.5,18.2-36.7c7.9-10.2,17.3-18.1,28.3-23.7
			c11-5.6,23.3-8.4,37-8.4c13.9,0,26,2.4,36.4,7.1c10.4,4.7,19.4,11.5,26.9,20.3V69.4h39v323.5h-35.8l-1.9-24.4
			c-7.6,9.3-16.7,16.4-27.4,21.3c-10.7,4.9-23.2,7.4-37.7,7.4c-13.3,0-25.5-2.9-36.5-8.6c-11-5.8-20.5-13.8-28.3-24.1
			c-7.9-10.3-13.9-22.5-18.2-36.6c-4.3-14.1-6.4-29.5-6.4-46.2V277z M1122.6,281.4c0,11.4,1.2,22.1,3.5,32.1
			c2.3,10,5.9,18.8,10.8,26.2c4.9,7.4,11.2,13.3,18.8,17.7c7.6,4.4,16.6,6.5,27.2,6.5c6.9,0,13.1-0.8,18.5-2.4
			c5.5-1.6,10.4-3.9,14.8-6.8c4.4-2.9,8.4-6.5,11.8-10.5c3.4-4.1,6.4-8.6,8.9-13.5V226.1c-2.5-4.6-5.5-8.9-8.8-12.8
			c-3.4-3.9-7.3-7.3-11.7-10.2c-4.4-2.9-9.4-5.1-14.8-6.7c-5.5-1.6-11.6-2.4-18.3-2.4c-10.7,0-19.8,2.2-27.5,6.6
			c-7.7,4.4-13.9,10.4-18.9,18c-4.9,7.6-8.5,16.4-10.8,26.4c-2.3,10-3.5,20.7-3.5,32.1V281.4z"/>
		<path class="st0" d="M1450,199.9c-3.4-0.6-6.5-1-9.4-1.2c-2.9-0.2-6.2-0.3-9.8-0.3c-13.5,0-24.5,2.9-33,8.8
			c-8.5,5.9-14.8,13.8-19.1,23.8v161.7h-39V165h37.9l0.6,26.3c5.9-9.4,13.3-16.8,22.1-22.3c8.9-5.5,19.6-8.2,32.2-8.2
			c2.8,0,6,0.3,9.7,0.9c3.7,0.6,6.2,1.3,7.6,2V199.9z"/>
		<path class="st0" d="M1475,276.8c0-16.6,2.4-31.9,7.3-46c4.8-14.1,11.7-26.4,20.6-36.8c8.9-10.4,19.8-18.5,32.5-24.4
			c12.8-5.9,27.1-8.8,43-8.8c16.2,0,30.7,2.9,43.5,8.8c12.8,5.9,23.8,14,32.7,24.4c9,10.4,15.9,22.6,20.6,36.8
			c4.8,14.1,7.2,29.5,7.2,46v4.6c0,16.6-2.4,31.9-7.2,46c-4.8,14.1-11.6,26.3-20.6,36.7c-9,10.3-19.9,18.4-32.6,24.2
			c-12.8,5.8-27.2,8.7-43.2,8.7c-16,0-30.4-2.9-43.2-8.7c-12.8-5.8-23.7-13.9-32.6-24.2c-9-10.3-15.9-22.5-20.7-36.7
			c-4.8-14.1-7.3-29.4-7.3-46V276.8z M1514.2,281.4c0,11.4,1.3,22.1,4,32.2c2.7,10.1,6.7,19,12.1,26.6c5.4,7.7,12.1,13.7,20.2,18.2
			c8.1,4.5,17.5,6.7,28.3,6.7c10.7,0,20.1-2.2,28.2-6.7c8.1-4.5,14.9-10.6,20.2-18.2c5.3-7.6,9.4-16.5,12.1-26.6
			c2.7-10.1,4.1-20.8,4.1-32.2v-4.6c0-11.2-1.4-21.9-4.1-32.1c-2.7-10.2-6.8-19.1-12.2-26.7c-5.4-7.6-12.2-13.8-20.3-18.3
			c-8.1-4.6-17.6-6.8-28.4-6.8c-10.7,0-20,2.3-28,6.8c-8,4.6-14.7,10.7-20.1,18.3c-5.4,7.6-9.4,16.6-12.1,26.7
			c-2.7,10.2-4,20.9-4,32.1V281.4z"/>
		<path class="st0" d="M1867,332.4c0-4.2-0.6-8.2-1.9-11.9c-1.3-3.7-3.8-7.2-7.5-10.5c-3.7-3.3-9-6.4-15.9-9.2
			c-6.9-2.8-15.9-5.4-27.2-7.8c-12.6-2.7-24-5.8-34.1-9.5c-10.1-3.7-18.7-8-25.8-13.2c-7.1-5.1-12.5-11.2-16.3-18.2
			c-3.8-7-5.7-15.2-5.7-24.6c0-9,2-17.5,6-25.6c4-8.1,9.7-15.2,17-21.3c7.3-6.1,16.1-11,26.5-14.5c10.4-3.6,22-5.4,34.7-5.4
			c13.6,0,25.8,1.9,36.5,5.6c10.8,3.7,19.9,8.8,27.4,15.3c7.5,6.5,13.2,14,17.2,22.6c3.9,8.6,5.9,17.9,5.9,27.7h-39.2
			c0-4.6-1.1-9.3-3.2-14c-2.1-4.7-5.2-8.9-9.3-12.6c-4.1-3.7-9.1-6.7-15-9.1s-12.7-3.5-20.4-3.5c-8.1,0-15.1,1-20.7,2.8
			c-5.7,1.9-10.4,4.4-14,7.6c-3.7,3.2-6.3,6.7-8,10.7c-1.7,4-2.5,8.1-2.5,12.3s0.7,8,2.1,11.4c1.4,3.4,4.1,6.4,8,9.2
			c3.9,2.7,9.3,5.3,16.1,7.6c6.8,2.3,15.6,4.7,26.4,7.1c13.9,3.2,26,6.9,36.2,11c10.2,4.1,18.8,8.8,25.5,14.2
			c6.7,5.4,11.8,11.6,15.1,18.6c3.3,7,4.9,15.2,4.9,24.4c0,10-2.1,19.1-6.2,27.4c-4.1,8.3-10.1,15.4-17.8,21.3
			c-7.7,5.9-17,10.5-27.8,13.8c-10.8,3.3-22.8,5-36,5c-15.2,0-28.5-2.1-40.1-6.3c-11.6-4.2-21.3-9.8-29.2-16.7
			c-7.9-6.9-13.8-14.9-17.9-23.8c-4.1-8.9-6.1-18.1-6.1-27.5h39c0.4,8,2.4,14.7,5.8,20.1c3.4,5.4,7.8,9.8,13,13.2
			c5.2,3.4,10.9,5.8,17,7.2c6.2,1.4,12.4,2.1,18.5,2.1c8,0,15-0.8,21.1-2.5c6-1.7,11.1-4,15.3-7c4.1-2.9,7.3-6.4,9.4-10.4
			C1866,341.4,1867,337,1867,332.4z"/>
	</g>
</g>
</svg>
