<?xml version="1.0" encoding="utf-8"?>
<!-- Generator: Adobe Illustrator 23.0.0, SVG Export Plug-In . SVG Version: 6.00 Build 0)  -->
<svg version="1.1" id="Layer_1" xmlns="http://www.w3.org/2000/svg" xmlns:xlink="http://www.w3.org/1999/xlink" x="0px" y="0px"
	 viewBox="0 0 41 41" style="enable-background:new 0 0 41 41;" xml:space="preserve">
<style type="text/css">
	.st0{fill:none;}
	.st1{fill-rule:evenodd;clip-rule:evenodd;fill:#FFFFFF;}
	.st2{fill:#65D3BF;}
	.st3{fill-rule:evenodd;clip-rule:evenodd;fill:#65D3BF;}
	.st4{fill:#404F54;}
	.st5{fill-rule:evenodd;clip-rule:evenodd;fill:#E0EAEF;}
</style>
<title>marketing</title>
<desc>Created with Sketch.</desc>
<g id="Rectangle-22">
	<rect x="-1.8" y="-3" class="st0" width="45" height="45"/>
</g>
<g id="Path-87">
	<path class="st1" d="M2.6,28.7c0,0,7.3,4.9,5.9,9.4c-1.3,4.5,4.4-1.4,4.4-1.4s-3.1-8.3-7.5-9.5"/>
	<path class="st2" d="M8.8,40.5c-0.2,0-0.4,0-0.6-0.1c-0.9-0.6-0.5-2-0.4-2.5c1-3.3-3.7-7.3-5.6-8.5c-0.3-0.2-0.4-0.7-0.2-1
		c0.2-0.3,0.7-0.4,1-0.2c0.3,0.2,7.7,5.2,6.2,10.2c-0.1,0.3-0.1,0.5-0.1,0.6c0.6-0.3,1.8-1.3,3-2.4c-0.7-1.7-3.4-7.7-6.9-8.6
		c-0.4-0.1-0.6-0.5-0.5-0.9s0.5-0.6,0.9-0.5c4.7,1.3,7.9,9.6,8,10c0.1,0.3,0,0.6-0.2,0.8C11.4,39.4,9.8,40.5,8.8,40.5z"/>
</g>
<g id="Combined-Shape">
	<path class="st3" d="M2.1,27.5l8.7-5c1-0.6,2.2-0.2,2.7,0.7l0.5,0.9c0.6,1,0.2,2.2-0.7,2.7l-8.7,5c-1,0.6-2.2,0.2-2.7-0.7l-0.5-0.9
		C0.8,29.2,1.2,28,2.1,27.5z"/>
	<path class="st4" d="M3.6,32.8c-0.2,0-0.5,0-0.7-0.1c-0.7-0.2-1.3-0.6-1.7-1.3l-0.5-0.9c-0.8-1.3-0.3-3,1-3.8l0,0l8.7-5
		c1.3-0.8,3-0.3,3.8,1l0.5,0.9c0.4,0.6,0.5,1.4,0.3,2.1c-0.2,0.7-0.6,1.3-1.3,1.7l-8.7,5C4.6,32.7,4.1,32.8,3.6,32.8z M2.5,28.1
		c-0.6,0.3-0.8,1.1-0.5,1.7l0.5,0.9C2.7,31,3,31.2,3.3,31.3c0.3,0.1,0.7,0,0.9-0.1l8.7-5c0.3-0.2,0.5-0.4,0.6-0.8s0-0.7-0.1-0.9
		l-0.5-0.9c-0.3-0.6-1.1-0.8-1.7-0.5L2.5,28.1z"/>
</g>
<g id="Path-86">
	<polygon class="st1" points="4.5,26.5 21.6,7.5 31.5,24.6 6.8,30.6 	"/>
</g>
<g id="Path-88">
	<path class="st1" d="M11,19.1c0,0-1.1,7.4,5.2,9"/>
	<path class="st2" d="M16.2,28.8c-0.1,0-0.1,0-0.2,0c-5.5-1.4-6.1-7-5.7-9.8c0.1-0.4,0.4-0.7,0.8-0.6c0.4,0.1,0.7,0.4,0.6,0.8
		c0,0.3-0.9,6.7,4.6,8.1c0.4,0.1,0.6,0.5,0.5,0.9C16.8,28.6,16.5,28.8,16.2,28.8z"/>
</g>
<g id="Path-88-Copy">
	<path class="st1" d="M14.1,16.5c0,0-1.3,8.6,6.1,10.5"/>
	<path class="st2" d="M20.1,27.7c-0.1,0-0.1,0-0.2,0c-7.9-2-6.6-11.2-6.6-11.3c0.1-0.4,0.4-0.7,0.8-0.6c0.4,0.1,0.7,0.4,0.6,0.8
		c0,0.3-1.1,8,5.5,9.7c0.4,0.1,0.6,0.5,0.5,0.9C20.8,27.5,20.5,27.7,20.1,27.7z"/>
</g>
<g id="Path-86-Copy">
	<path class="st4" d="M6.8,31.4c-0.3,0-0.5-0.1-0.6-0.4l-2.4-4.1c-0.2-0.3-0.1-0.6,0.1-0.9l11.5-12.8c0.3-0.3,0.8-0.3,1.1-0.1
		c0.3,0.3,0.3,0.8,0.1,1.1L5.4,26.6l1.8,3.1l23.1-5.6L21.4,8.8l-2.3,2.5c-0.3,0.3-0.8,0.3-1.1,0.1c-0.3-0.3-0.3-0.8-0.1-1.1L21,7
		c0.2-0.2,0.4-0.3,0.6-0.2c0.2,0,0.5,0.2,0.6,0.4l9.9,17.1c0.1,0.2,0.1,0.5,0,0.7s-0.3,0.4-0.5,0.4L7,31.4
		C6.9,31.4,6.9,31.4,6.8,31.4z"/>
</g>
<g id="Oval-4">
	<ellipse transform="matrix(0.866 -0.5 0.5 0.866 -4.5054 15.432)" class="st5" cx="26.5" cy="16.1" rx="2.5" ry="9.9"/>
	<path class="st4" d="M31.1,25.5c-0.8,0-1.9-0.6-3.1-1.9c-1.4-1.4-2.9-3.5-4.2-5.8c-1.4-2.3-2.4-4.7-2.9-6.6
		c-0.7-2.3-0.5-3.7,0.4-4.2c0.9-0.5,2.2,0,3.9,1.7c1.4,1.4,2.9,3.5,4.2,5.8s2.4,4.7,2.9,6.6c0.7,2.3,0.5,3.7-0.4,4.2
		C31.6,25.5,31.4,25.5,31.1,25.5z M22,8.2c-0.4,0.6,0.3,4,3,8.8c2.8,4.8,5.5,7.1,6.1,7c0.4-0.5-0.3-3.9-3.1-8.8
		C25.3,10.5,22.7,8.2,22,8.2z M22,8.2L22,8.2L22,8.2L22,8.2z M21.6,7.6L21.6,7.6L21.6,7.6z"/>
</g>
<g id="Path-89">
	<polyline class="st1" points="26.6,6 28.2,3.6 29.7,3.6 30.6,1.3 	"/>
	<path class="st2" d="M26.6,6.8c-0.1,0-0.3,0-0.4-0.1c-0.3-0.2-0.4-0.7-0.2-1l1.6-2.4C27.7,3,28,2.9,28.2,2.9l1,0L29.9,1
		c0.2-0.4,0.6-0.6,1-0.4c0.4,0.2,0.6,0.6,0.4,1l-0.9,2.3c-0.1,0.3-0.4,0.5-0.7,0.5l-1.1,0l-1.4,2.1C27.1,6.7,26.9,6.8,26.6,6.8z"/>
</g>
<g id="Path-89-Copy">
	<polyline class="st1" points="34.6,22 37.5,22 39.8,20.3 	"/>
	<path class="st2" d="M37.5,22.8h-2.9c-0.4,0-0.8-0.3-0.8-0.8s0.3-0.8,0.8-0.8h2.6l2.1-1.6c0.3-0.2,0.8-0.2,1,0.2
		c0.2,0.3,0.2,0.8-0.2,1L38,22.6C37.8,22.7,37.7,22.8,37.5,22.8z"/>
</g>
<g id="Path-89-Copy-2">
	<polyline class="st1" points="31.6,13 34.2,12.1 36.4,10.1 	"/>
	<path class="st2" d="M31.6,13.8c-0.3,0-0.6-0.2-0.7-0.5c-0.1-0.4,0.1-0.8,0.5-1l2.4-0.9l2.1-1.9c0.3-0.3,0.8-0.3,1.1,0
		c0.3,0.3,0.3,0.8,0,1.1l-2.2,2c-0.1,0.1-0.2,0.1-0.3,0.2l-2.6,0.9C31.8,13.8,31.7,13.8,31.6,13.8z"/>
</g>
</svg>
