<?xml version="1.0" encoding="utf-8"?>
<!-- Generator: Adobe Illustrator 23.0.0, SVG Export Plug-In . SVG Version: 6.00 Build 0)  -->
<svg version="1.1" id="Layer_1" xmlns="http://www.w3.org/2000/svg" xmlns:xlink="http://www.w3.org/1999/xlink" x="0px" y="0px"
	 viewBox="0 0 39 36" style="enable-background:new 0 0 39 36;" xml:space="preserve">
<style type="text/css">
	.st0{fill:none;}
	.st1{fill-rule:evenodd;clip-rule:evenodd;fill:#FFFFFF;}
	.st2{fill:#1EA69A;}
	.st3{fill-rule:evenodd;clip-rule:evenodd;fill:#9BE8E2;}
	.st4{fill:#E0EAEF;}
	.st5{fill:#404F54;}
	.st6{fill:#65D3BF;}
	.st7{fill-rule:evenodd;clip-rule:evenodd;fill:#65D3BF;}
	.st8{fill:#FFFFFF;}
</style>
<title>Payment data</title>
<desc>Created with Sketch.</desc>
<g id="Rectangle-22">
	<rect x="-1.8" y="-8" class="st0" width="45" height="45"/>
</g>
<g id="Group-5" transform="translate(21.500000, 29.000000) rotate(-16.000000) translate(-21.500000, -29.000000) translate(5.000000, 19.000000)">
	<g id="Rectangle-5-Copy">
		<path class="st1" d="M2.3-8.2l29,0c1.1,0,2,0.9,2,2l0,16c0,1.1-0.9,2-2,2l-29,0c-1.1,0-2-0.9-2-2l0-16C0.3-7.3,1.2-8.2,2.3-8.2z"
			/>
	</g>
	<g id="Group-4" transform="translate(3.000000, 11.076340)">
		<g id="Oval-3">
			<path class="st2" d="M1.9-2.7C0.5-3.1-0.5-4.3-0.5-5.8C-0.5-7.6,1-9,2.7-9C3.6-9,4.4-8.7,5-8.1C5.6-7.4,6-6.6,6-5.8
				C6-4,4.5-2.6,2.7-2.6C2.4-2.6,2.1-2.6,1.9-2.7z M3.2-7.4c-0.2,0-0.3-0.1-0.5-0.1C1.8-7.5,1-6.7,1-5.8c0,0.9,0.8,1.7,1.7,1.7
				c0.9,0,1.7-0.8,1.7-1.7C4.5-6.2,4.3-6.7,4-7C3.7-7.2,3.5-7.3,3.2-7.4z"/>
		</g>
		<g id="Oval-3-Copy">
			<circle class="st3" cx="6" cy="-5.8" r="2.5"/>
			<path class="st2" d="M5.1-2.7C3.8-3.1,2.8-4.3,2.8-5.8c0-0.9,0.3-1.7,0.9-2.3S5.2-9,6-9l0,0C6.9-9,7.7-8.7,8.3-8
				c0.6,0.6,0.9,1.4,0.9,2.3c0,0.9-0.3,1.7-0.9,2.3S6.9-2.6,6-2.6C5.7-2.6,5.4-2.6,5.1-2.7z M6.5-7.4C6.3-7.5,6.2-7.5,6-7.5
				c0,0,0,0,0,0C5.6-7.5,5.1-7.3,4.8-7C4.5-6.7,4.3-6.2,4.3-5.8c0,0.9,0.8,1.7,1.7,1.7c0.9,0,1.7-0.8,1.7-1.7c0-0.5-0.2-0.9-0.5-1.2
				C7-7.2,6.8-7.3,6.5-7.4z M6-8.2L6-8.2L6-8.2z"/>
		</g>
	</g>
	<g id="Rectangle-5">
		<path class="st4" d="M0.1-0.3c-0.3-0.1-0.5-0.4-0.5-0.7l0-3c0-0.2,0.1-0.4,0.2-0.5c0.1-0.1,0.3-0.2,0.5-0.2l33,0
			c0.4,0,0.8,0.3,0.8,0.7l0,3c0,0.2-0.1,0.4-0.2,0.5c-0.1,0.1-0.3,0.2-0.5,0.2l-33,0C0.2-0.3,0.1-0.3,0.1-0.3z M1-3.3l0,1.5l31.5,0
			l0-1.5L1-3.3z"/>
	</g>
	<g id="Rectangle-5-Copy-2">
		<path class="st5" d="M1.5,12.4c-1.1-0.3-2-1.4-2-2.6l0-16c0-0.7,0.3-1.4,0.8-1.9C0.9-8.7,1.5-9,2.3-9l0,0l29,0
			c0.7,0,1.4,0.3,1.9,0.8C33.7-7.7,34-7,34-6.2l0,16c0,0.7-0.3,1.4-0.8,1.9c-0.5,0.5-1.2,0.8-1.9,0.8l-29,0
			C2,12.5,1.8,12.5,1.5,12.4z M31.6-7.4c-0.1,0-0.2,0-0.3,0l-29,0c0,0,0,0,0,0c-0.3,0-0.6,0.1-0.9,0.4C1.2-6.9,1-6.6,1-6.2l0,16
			c0,0.3,0.1,0.6,0.4,0.9C1.6,10.9,1.9,11,2.3,11l29,0c0.3,0,0.6-0.1,0.9-0.4c0.2-0.2,0.4-0.6,0.4-0.9l0-16c0-0.3-0.1-0.6-0.4-0.9
			C32-7.3,31.8-7.4,31.6-7.4z M2.3-8.2L2.3-8.2L2.3-8.2z"/>
	</g>
</g>
<g id="Group-5-Copy" transform="translate(4.000000, 22.000000)">
	<g>
		<path class="st1" d="M19,12H0c-1.1,0-2-0.9-2-2V-6l0,0c0-1.1,0.9-2,2-2h29c1.1,0,2,0.9,2,2v16c0,1.1-0.9,2-2,2h-6.1"/>
	</g>
	<g transform="translate(3.000000, 11.076340)">
		<g>
			<path class="st6" d="M0.5-2.3c-1.8,0-3.2-1.4-3.2-3.2s1.4-3.2,3.2-3.2s3.2,1.4,3.2,3.2S2.2-2.3,0.5-2.3z M0.5-7.3
				c-0.9,0-1.7,0.8-1.7,1.7s0.8,1.7,1.7,1.7s1.7-0.8,1.7-1.7S1.4-7.3,0.5-7.3z"/>
		</g>
		<g>
			<circle class="st3" cx="3.7" cy="-5.5" r="2.5"/>
			<path class="st6" d="M3.7-2.3C2-2.3,0.5-3.8,0.5-5.5S2-8.8,3.7-8.8S7-7.3,7-5.5S5.5-2.3,3.7-2.3z M3.7-7.3C2.8-7.3,2-6.5,2-5.5
				s0.8,1.7,1.7,1.7s1.7-0.8,1.7-1.7S4.7-7.3,3.7-7.3z"/>
		</g>
	</g>
	<g>
		<path class="st4" d="M31-0.1H-2c-0.4,0-0.8-0.3-0.8-0.8v-3c0-0.4,0.3-0.8,0.8-0.8h33c0.4,0,0.8,0.3,0.8,0.8v3
			C31.8-0.4,31.4-0.1,31-0.1z M-1.3-1.6h31.5v-1.5H-1.3V-1.6z"/>
	</g>
	<g>
		<path class="st5" d="M29,12.8h-4c-0.4,0-0.8-0.3-0.8-0.8s0.3-0.8,0.8-0.8h4c0.7,0,1.3-0.5,1.3-1.2V-6c0-0.7-0.6-1.2-1.3-1.2H0
			c-0.7,0-1.3,0.6-1.3,1.2v16c0,0.7,0.6,1.2,1.2,1.2h20.7c0.4,0,0.8,0.3,0.8,0.8s-0.3,0.8-0.8,0.8H0c-1.5,0-2.7-1.2-2.7-2.7V-6
			c0-1.5,1.2-2.7,2.8-2.7h29c1.5,0,2.8,1.2,2.8,2.7v16C31.8,11.5,30.5,12.8,29,12.8z"/>
	</g>
</g>
<g id="Group" transform="translate(23.000000, 9.000000)">
	<g id="Oval-12">
		<path class="st7" d="M0.2-4.7C-1-3.3-1.7-1.4-1.7,0.7c0,4.7,3.8,8.5,8.5,8.5l0,0c4.7,0,8.5-3.8,8.5-8.5s-3.8-8.5-8.5-8.5
			c-1.2,0-2.3,0.2-3.3,0.7"/>
		<path class="st5" d="M6.8,9.9c-5.1,0-9.3-4.1-9.3-9.3c0-2.1,0.7-4.2,2.1-5.9c0.3-0.3,0.7-0.4,1.1-0.1C1-5.1,1-4.6,0.8-4.3
			C-0.4-2.9-1-1.1-1,0.7c0,4.3,3.5,7.8,7.8,7.8s7.8-3.5,7.8-7.8S11-7.1,6.8-7.1c-1,0-2,0.2-3,0.6c-0.4,0.2-0.8,0-1-0.4s0-0.8,0.4-1
			c1.1-0.5,2.3-0.7,3.6-0.7c5.1,0,9.3,4.1,9.3,9.3S11.9,9.9,6.8,9.9z"/>
	</g>
	
		<g id="Group-6" transform="translate(8.500000, 8.500000) rotate(-315.000000) translate(-8.500000, -8.500000) translate(5.000000, 4.000000)">
		<g id="Path-81">
			<path class="st8" d="M0.4,0.3c-0.3,0.3-0.8,0.3-1.1,0l-2.7-2.7l-2.6,2.6c-0.3,0.3-0.8,0.3-1.1,0c-0.3-0.3-0.3-0.8,0-1.1l3.1-3.1
				c0.3-0.3,0.8-0.3,1.1,0l3.2,3.2C0.7-0.5,0.7,0,0.4,0.3z"/>
		</g>
		<g id="Path-82">
			<path class="st1" d="M-3.3-3.3v7.4"/>
			<path class="st8" d="M-2.8,4.6c-0.1,0.1-0.3,0.2-0.5,0.2c-0.4,0-0.7-0.3-0.7-0.7l0-7.4C-4.1-3.7-3.7-4-3.3-4s0.7,0.3,0.7,0.7
				l0,7.4C-2.6,4.3-2.6,4.5-2.8,4.6z"/>
		</g>
	</g>
</g>
</svg>
