<?xml version="1.0" encoding="utf-8"?>
<!-- Generator: Adobe Illustrator 23.0.0, SVG Export Plug-In . SVG Version: 6.00 Build 0)  -->
<svg version="1.1" id="Layer_1" xmlns="http://www.w3.org/2000/svg" xmlns:xlink="http://www.w3.org/1999/xlink" x="0px" y="0px"
	 viewBox="0 0 44 35" style="enable-background:new 0 0 44 35;" xml:space="preserve">
<style type="text/css">
	.st0{fill:none;}
	.st1{fill-rule:evenodd;clip-rule:evenodd;fill:#FFFFFF;}
	.st2{fill:#404F54;}
	.st3{fill-rule:evenodd;clip-rule:evenodd;fill:#E0EAEF;}
	.st4{fill-rule:evenodd;clip-rule:evenodd;fill:#65D3BF;}
	.st5{fill:#FFFFFF;}
	.st6{fill:#65D3BF;}
</style>
<title>data ownership</title>
<desc>Created with Sketch.</desc>
<g id="Page-1">
	<g id="Icons" transform="translate(-592.000000, -231.000000)">
		<g id="data-ownership" transform="translate(591.000000, 224.000000)">
			<rect id="Rectangle-22" x="0.2" class="st0" width="45" height="45"/>
			<g id="Group-2" transform="translate(2.000000, 7.060994)">
				<g id="Combined-Shape">
					<path class="st1" d="M7.3,18.6L5.8,29.7C5.4,32,7,33.9,9.4,33.9h24.9c2.3,0,4.5-1.9,4.8-4.2l0.1-0.5l0.5-3.8l1.5-10.3
						c0.1-0.7,0-1.4-0.3-2l0.6-3.4C41.6,8.7,41,8,40.1,8h-7.6c-0.9,0-1.7,0.7-1.9,1.6l-0.2,1.3l0,0H12.6c-2.3,0-4.5,1.9-4.8,4.2
						l-0.2,1.2"/>
					<path class="st2" d="M34.3,34.6H9.4c-1.3,0-2.5-0.5-3.4-1.5s-1.2-2.2-1-3.5l1.6-11.1c0.1-0.4,0.4-0.7,0.8-0.6
						c0.4,0.1,0.7,0.4,0.6,0.8L6.5,29.8c-0.1,0.9,0.1,1.7,0.6,2.3s1.3,1,2.2,1h24.9c2,0,3.8-1.6,4-3.5L40.4,15
						c0.1-0.6,0-1.1-0.2-1.6l-0.1-0.2l0.6-3.6c0-0.2,0-0.4-0.1-0.5c-0.1-0.1-0.3-0.2-0.5-0.2h-7.6c-0.5,0-1.1,0.5-1.1,1L31,11.7
						H12.6c-2,0-3.8,1.6-4,3.5l-0.2,1.2C8.3,16.8,8,17,7.5,17c-0.4-0.1-0.7-0.4-0.6-0.8L7.1,15c0.4-2.6,2.9-4.8,5.5-4.8h17.1
						l0.1-0.7c0.2-1.2,1.4-2.2,2.6-2.2h7.6c0.6,0,1.2,0.3,1.6,0.7c0.4,0.5,0.6,1.1,0.5,1.7L41.6,13c0.3,0.7,0.3,1.5,0.2,2.2
						l-2.1,14.6C39.4,32.5,36.9,34.6,34.3,34.6z"/>
				</g>
				<g id="Rectangle-2">
					<path class="st3" d="M9.4,19.9c0.3-2.7,2.8-5,5.6-5h20c2.8,0,4.8,2.2,4.5,5L38.6,28c-0.3,2.7-2.8,5-5.6,5H13
						c-2.8,0-4.8-2.2-4.5-5L9.4,19.9z"/>
				</g>
				<g id="Rectangle-21-Copy-6">
					<path class="st1" d="M0.8,23.3l-0.3-0.8c-0.9-2.1,0.2-3.8,2.5-3.8h24.9c2.3,0,5,1.7,5.9,3.8l3.4,7.5c0.9,2.1-0.2,3.8-2.5,3.8
						H9.7c-2.3,0-5-1.7-5.9-3.8l-1.7-3.8"/>
					<path class="st2" d="M34.6,34.6H9.7c-2.6,0-5.5-1.9-6.6-4.3l-1.7-3.8c-0.2-0.4,0-0.8,0.4-1c0.4-0.2,0.8,0,1,0.4l1.7,3.8
						c0.8,1.8,3.2,3.4,5.2,3.4h24.9c0.9,0,1.5-0.3,1.8-0.8c0.3-0.5,0.3-1.2,0-2L33,22.8c-0.8-1.8-3.2-3.4-5.2-3.4H2.9
						c-0.9,0-1.5,0.3-1.8,0.8c-0.3,0.5-0.3,1.2,0,2L1.4,23c0.2,0.4,0,0.8-0.4,1c-0.4,0.2-0.8,0-1-0.4l-0.3-0.8
						c-0.6-1.3-0.5-2.5,0.1-3.4s1.7-1.5,3.1-1.5h24.9c2.6,0,5.5,1.9,6.6,4.3l3.4,7.5c0.6,1.3,0.5,2.5-0.1,3.4S36,34.6,34.6,34.6z"/>
				</g>
				<g id="Oval-2">
					<path class="st4" d="M5.4,3C3.9,4.4,3,6.4,3,8.7c0,4.3,3.5,7.7,7.7,7.7l0,0c4.3,0,7.7-3.5,7.7-7.7S15,0.9,10.7,0.9
						C10,0.9,9.3,1,8.7,1.2"/>
					<path class="st2" d="M10.7,17.1c-4.7,0-8.5-3.8-8.5-8.5c0-2.3,1-4.6,2.7-6.2c0.3-0.3,0.8-0.3,1.1,0c0.3,0.3,0.3,0.8,0,1.1
						C4.5,4.9,3.8,6.7,3.8,8.7c0,3.8,3.1,7,7,7s7-3.1,7-7s-3.1-7-7-7c-0.6,0-1.3,0.1-1.9,0.3C8.5,2.1,8.1,1.8,7.9,1.4
						C7.8,1,8.1,0.6,8.5,0.5c0.7-0.2,1.5-0.3,2.3-0.3c4.7,0,8.5,3.8,8.5,8.5S15.4,17.1,10.7,17.1z"/>
				</g>
				<g id="Path-80">
					<path class="st5" d="M10.6,11.8c-0.2,0-0.4-0.1-0.5-0.2L7.6,9.4C7.3,9.1,7.2,8.6,7.5,8.3C7.8,8,8.2,8,8.6,8.3l2,1.7l3.2-3.6
						C14,6.1,14.5,6,14.8,6.3c0.3,0.3,0.3,0.8,0.1,1.1l-3.7,4.2C11,11.7,10.8,11.8,10.6,11.8z"/>
				</g>
				<g id="Path-2">
					<path class="st6" d="M19.3,29.2c-0.1,0-0.3,0-0.4-0.1l-4.6-2.6l-1.8,2.2c-0.3,0.3-0.7,0.4-1.1,0.1c-0.3-0.3-0.4-0.7-0.1-1.1
						l2.2-2.7c0.2-0.3,0.6-0.4,1-0.2l4.5,2.6l2.6-3.4c0.3-0.3,0.7-0.4,1.1-0.1c0.3,0.3,0.4,0.7,0.1,1.1l-3,3.9
						C19.7,29.1,19.5,29.2,19.3,29.2z"/>
				</g>
			</g>
		</g>
	</g>
</g>
</svg>
