<?xml version="1.0" encoding="utf-8"?>
<!-- Generator: Adobe Illustrator 23.0.0, SVG Export Plug-In . SVG Version: 6.00 Build 0)  -->
<svg version="1.1" id="Layer_1" xmlns="http://www.w3.org/2000/svg" xmlns:xlink="http://www.w3.org/1999/xlink" x="0px" y="0px"
	 viewBox="0 0 44 40" style="enable-background:new 0 0 44 40;" xml:space="preserve">
<style type="text/css">
	.st0{fill:none;}
	.st1{fill-rule:evenodd;clip-rule:evenodd;fill:#E0EAEF;}
	.st2{fill-rule:evenodd;clip-rule:evenodd;fill:#65D3BF;}
	.st3{fill:#404F54;}
	.st4{fill:#65D3BF;}
	.st5{fill:#FFFFFF;}
</style>
<title>seamless hosting</title>
<desc>Created with Sketch.</desc>
<g id="Page-1">
	<g id="Icons" transform="translate(-275.000000, -228.000000)">
		<g id="seamless-hosting" transform="translate(274.000000, 224.000000)">
			<g id="Rectangle-22">
				<rect x="0.2" class="st0" width="45" height="45"/>
			</g>
			<g id="Combined-Shape">
				<path class="st1" d="M17.5,20.8c0,0-0.1,0-0.1,0c-3.1,0-5.6,2.5-5.6,5.6s2.5,5.6,5.6,5.6H36c3.1,0,5.6-2.5,5.6-5.6
					c0-3.1-2.5-5.6-5.6-5.6c-0.8-4.4-4.7-7.7-9.3-7.7C22.1,13.1,18.3,16.4,17.5,20.8L17.5,20.8z"/>
			</g>
			<g id="Oval-2">
				<path class="st2" d="M17.7,13.4c-1.5,1.4-2.4,3.4-2.4,5.6c0,4.3,3.5,7.7,7.7,7.7l0,0c4.3,0,7.7-3.5,7.7-7.7s-3.5-7.7-7.7-7.7
					c-0.7,0-1.4,0.1-2.1,0.3"/>
				<path class="st3" d="M23,27.5c-4.7,0-8.5-3.8-8.5-8.5c0-2.3,1-4.6,2.7-6.2c0.3-0.3,0.8-0.3,1.1,0c0.3,0.3,0.3,0.8,0,1.1
					C16.8,15.2,16,17.1,16,19c0,3.8,3.1,7,7,7c3.8,0,7-3.1,7-7s-3.1-7-7-7c-0.6,0-1.3,0.1-1.9,0.3c-0.4,0.1-0.8-0.1-0.9-0.5
					c-0.1-0.4,0.1-0.8,0.5-0.9c0.7-0.2,1.5-0.3,2.3-0.3c4.7,0,8.5,3.8,8.5,8.5S27.7,27.5,23,27.5z"/>
			</g>
			<g id="Combined-Shape-Copy">
				<path class="st3" d="M35.8,32.8h-26c-4.7,0-8.5-3.8-8.5-8.5c0-4.6,3.6-8.3,8.1-8.5C10.8,9.4,16.4,5,22.9,5
					C29.4,5,35,9.4,36.4,15.7c4.4,0.3,7.9,4,7.9,8.5C44.3,28.9,40.5,32.8,35.8,32.8z M9.8,17.2c-3.9,0-7,3.2-7,7c0,3.9,3.2,7,7,7h26
					c3.9,0,7-3.2,7-7c0-3.9-3.2-7-7-7c-0.4,0-0.7-0.3-0.7-0.6C34,10.7,28.8,6.5,22.9,6.5s-11.1,4.2-12.2,10.1
					c-0.1,0.4-0.4,0.6-0.8,0.6L9.8,17.2z"/>
			</g>
			<g id="Path-79">
				<path class="st4" d="M41.2,40.1H26.3c-0.4,0-0.8-0.3-0.8-0.8s0.3-0.8,0.8-0.8h14.9c0.4,0,0.8,0.3,0.8,0.8S41.6,40.1,41.2,40.1z"
					/>
			</g>
			<g id="Path-79-Copy">
				<path class="st4" d="M19,40.1H4.2c-0.4,0-0.8-0.3-0.8-0.8s0.3-0.8,0.8-0.8H19c0.4,0,0.8,0.3,0.8,0.8S19.4,40.1,19,40.1z"/>
			</g>
			<g id="Oval">
				<path class="st3" d="M22.8,43.8c-2.3,0-4.3-1.9-4.3-4.3s1.9-4.3,4.3-4.3c2.3,0,4.3,1.9,4.3,4.3S25.1,43.8,22.8,43.8z M22.8,36.8
					c-1.5,0-2.8,1.2-2.8,2.8s1.2,2.8,2.8,2.8s2.8-1.2,2.8-2.8S24.3,36.8,22.8,36.8z"/>
			</g>
			<g id="Path-80">
				<path class="st5" d="M23,22.9c-0.1,0-0.2,0-0.4-0.1c-0.4-0.2-0.5-0.7-0.3-1l1-1.9l-2,0c-0.3,0-0.5-0.1-0.6-0.3s-0.2-0.5-0.1-0.7
					l1.5-3.5c0.2-0.4,0.6-0.6,1-0.4c0.4,0.2,0.6,0.6,0.4,1l-1,2.5l2.2,0c0.3,0,0.5,0.1,0.6,0.4s0.1,0.5,0,0.7l-1.7,3
					C23.5,22.7,23.3,22.9,23,22.9z"/>
			</g>
		</g>
	</g>
</g>
</svg>
