<?xml version="1.0" encoding="utf-8"?>
<!-- Generator: Adobe Illustrator 23.0.0, SVG Export Plug-In . SVG Version: 6.00 Build 0)  -->
<svg version="1.1" id="Layer_1" xmlns="http://www.w3.org/2000/svg" xmlns:xlink="http://www.w3.org/1999/xlink" x="0px" y="0px"
	 viewBox="0 0 40 35" style="enable-background:new 0 0 40 35;" xml:space="preserve">
<style type="text/css">
	.st0{fill:none;}
	.st1{fill-rule:evenodd;clip-rule:evenodd;fill:#FFFFFF;}
	.st2{fill:#404F54;}
	.st3{fill-rule:evenodd;clip-rule:evenodd;fill:#E0EAEF;}
	.st4{fill-rule:evenodd;clip-rule:evenodd;fill:#65D3BF;}
	.st5{fill:#FFFFFF;}
	.st6{fill:#E0EAEF;}
	.st7{fill:#65D3BF;}
</style>
<title>instant upgrades</title>
<desc>Created with Sketch.</desc>
<g id="Rectangle-22">
	<rect x="-1.8" y="-5" class="st0" width="45" height="45"/>
</g>
<g id="Rectangle-3">
	<path class="st1" d="M38,23.5v2.1V29c0,2.8-2.2,5-5,5H6c-2.8,0-5-2.2-5-5V11l0,0c0-2.8,2.2-5,5-5h27c2.8,0,5,2.2,5,5V20"/>
	<path class="st2" d="M33,34.8H6c-3.2,0-5.8-2.6-5.8-5.8V11c0-3.2,2.6-5.8,5.8-5.8h27c3.2,0,5.8,2.6,5.8,5.7V20
		c0,0.4-0.3,0.8-0.8,0.8s-0.8-0.3-0.8-0.8V11c0-2.3-1.9-4.2-4.3-4.2H6c-2.3,0-4.3,1.9-4.3,4.3v18c0,2.3,1.9,4.3,4.3,4.3h27
		c2.3,0,4.3-1.9,4.3-4.3v-5.5c0-0.4,0.3-0.8,0.8-0.8s0.8,0.3,0.8,0.8V29C38.8,32.2,36.2,34.8,33,34.8z"/>
</g>
<g id="Rectangle-3-Copy">
	<path class="st3" d="M4.9,6h29.3C36.3,6,38,7.7,38,9.9l0,0c0,2.1-1.7,3.9-3.9,3.9H4.9C2.7,13.7,1,12,1,9.9l0,0C1,7.7,2.7,6,4.9,6z"
		/>
	<path class="st2" d="M34.1,14.5H4.9c-2.5,0-4.6-2.1-4.6-4.6s2.1-4.6,4.6-4.6h29.3c2.5,0,4.6,2.1,4.6,4.6S36.7,14.5,34.1,14.5z
		 M4.9,6.8c-1.7,0-3.1,1.4-3.1,3.1S3.1,13,4.9,13h29.3c1.7,0,3.1-1.4,3.1-3.1s-1.4-3.1-3.1-3.1H4.9z"/>
</g>
<g id="Oval-12">
	<path class="st4" d="M24.2,4.3c-1.2,1.5-1.9,3.4-1.9,5.4c0,4.7,3.8,8.5,8.5,8.5l0,0c4.7,0,8.5-3.8,8.5-8.5s-3.8-8.5-8.5-8.5
		c-1.2,0-2.3,0.2-3.3,0.7"/>
	<path class="st2" d="M30.8,18.9c-5.1,0-9.3-4.1-9.3-9.3c0-2.1,0.7-4.2,2.1-5.9c0.3-0.3,0.7-0.4,1.1-0.1C25,3.9,25,4.4,24.8,4.7
		C23.6,6.1,23,7.9,23,9.7c0,4.3,3.5,7.8,7.8,7.8s7.8-3.5,7.8-7.8S35,1.9,30.8,1.9c-1,0-2,0.2-3,0.6c-0.4,0.2-0.8,0-1-0.4
		c-0.2-0.4,0-0.8,0.4-1c1.1-0.5,2.3-0.7,3.6-0.7c5.1,0,9.3,4.1,9.3,9.3S35.9,18.9,30.8,18.9z"/>
</g>
<g id="Path-81">
	<path class="st5" d="M33.9,9.8c-0.2,0-0.4-0.1-0.5-0.2l-2.7-2.7l-2.6,2.6c-0.3,0.3-0.8,0.3-1.1,0s-0.3-0.8,0-1.1l3.1-3.1
		C30.5,5,31,5,31.2,5.3l3.2,3.2c0.3,0.3,0.3,0.8,0,1.1C34.3,9.7,34.1,9.8,33.9,9.8z"/>
</g>
<g id="Path-82">
	<path class="st1" d="M30.8,6v7.4"/>
	<path class="st5" d="M30.8,14.1c-0.4,0-0.8-0.3-0.8-0.8V6c0-0.4,0.3-0.8,0.8-0.8s0.8,0.3,0.8,0.8v7.4
		C31.5,13.8,31.2,14.1,30.8,14.1z"/>
</g>
<g id="Path-83">
	<path class="st1" d="M6.3,19.2h13.1"/>
	<path class="st6" d="M19.4,19.9H6.3c-0.4,0-0.8-0.3-0.8-0.8s0.3-0.8,0.8-0.8h13.1c0.4,0,0.8,0.3,0.8,0.8S19.9,19.9,19.4,19.9z"/>
</g>
<g id="Path-83-Copy">
	<path class="st1" d="M6.3,23.2l6.4,0"/>
	<path class="st7" d="M6.3,23.9c-0.4,0-0.7-0.3-0.8-0.7c0-0.4,0.3-0.8,0.7-0.8l6.4,0c0,0,0,0,0,0c0.4,0,0.7,0.3,0.8,0.7
		c0,0.4-0.3,0.8-0.7,0.8L6.3,23.9C6.4,23.9,6.4,23.9,6.3,23.9z"/>
</g>
<g id="Path-83-Copy-3">
	<path class="st1" d="M6.3,27.2h13.1"/>
	<path class="st7" d="M19.4,27.9H6.3c-0.4,0-0.8-0.3-0.8-0.8s0.3-0.8,0.8-0.8h13.1c0.4,0,0.8,0.3,0.8,0.8S19.9,27.9,19.4,27.9z"/>
</g>
<g id="Path-83-Copy-2">
	<path class="st1" d="M16.3,23.2h12.1"/>
	<path class="st6" d="M28.4,23.9H16.3c-0.4,0-0.8-0.3-0.8-0.8s0.3-0.8,0.8-0.8h12.1c0.4,0,0.8,0.3,0.8,0.8S28.9,23.9,28.4,23.9z"/>
</g>
</svg>
