<svg xmlns="http://www.w3.org/2000/svg" width="25.514" height="25.516" viewBox="0 0 25.514 25.516">
  <path id="Path_1597" data-name="Path 1597" d="M131.538,1.407a3.914,3.914,0,0,0-5.535,0L110.486,16.925a.87.87,0,0,0-.223.383l-2.041,7.367a.87.87,0,0,0,1.07,1.071l7.367-2.041a.87.87,0,0,0,.383-.223L132.559,7.963a3.918,3.918,0,0,0,0-5.535ZM112.381,17.49l12.7-12.7,4.1,4.1-12.7,12.7Zm-.818,1.642,3.272,3.273-4.526,1.254Zm19.766-12.4-.922.922-4.1-4.1.923-.922a2.174,2.174,0,0,1,3.075,0l1.021,1.021A2.178,2.178,0,0,1,131.329,6.733Zm0,0" transform="translate(-108.19 -0.261)" fill="#534741"/>
</svg>
