<svg id="Group_98" data-name="Group 98" xmlns="http://www.w3.org/2000/svg" width="23.88" height="23.88" viewBox="0 0 23.88 23.88">
  <path id="Path_1593" data-name="Path 1593" d="M22.562,0H1.317A1.318,1.318,0,0,0,0,1.318V22.563A1.318,1.318,0,0,0,1.318,23.88H22.562a1.318,1.318,0,0,0,1.318-1.318h0V1.317A1.318,1.318,0,0,0,22.562,0Z" transform="translate(0 0)" fill="#4267b2"/>
  <path id="Path_1594" data-name="Path 1594" d="M213.833,97.6V88.363h3.113l.466-3.615h-3.58v-2.3c0-1.044.29-1.756,1.787-1.756h1.9V77.466a25.513,25.513,0,0,0-2.781-.142c-2.752,0-4.635,1.679-4.635,4.764v2.66H207v3.615h3.1V97.6Z" transform="translate(-197.345 -73.718)" fill="#fff"/>
</svg>
