<svg xmlns="http://www.w3.org/2000/svg" width="25.56" height="25.561" viewBox="0 0 25.56 25.561">
  <g id="Group_97" data-name="Group 97" transform="translate(-54.359 -55.095)">
    <path id="SVGCleanerId_1" data-name="SVGCleanerId 1" d="M119.039,63.019A8.456,8.456,0,0,0,106.03,62l-.371.384-3.275-2.809.405-.432a12.751,12.751,0,0,1,19.937,1.617l.151.225a.311.311,0,0,1-.1.441l-3.189,1.88a.311.311,0,0,1-.412-.09Z" transform="translate(-44.97)" fill="#cd2900"/>
    <path id="SVGCleanerId_2" data-name="SVGCleanerId 2" d="M55.989,139.219a12.757,12.757,0,0,1,1.106-14.132l.365-.464,3.275,2.809-.325.425A8.444,8.444,0,0,0,59.693,137l.255.47-3.67,2.268Z" transform="translate(0 -65.105)" fill="#ffce00"/>
    <path id="SVGCleanerId_3" data-name="SVGCleanerId 3" d="M94.829,333.918a12.787,12.787,0,0,1-10.565-5.6l-.334-.49,3.671-2.269.307.436a8.455,8.455,0,0,0,13.012,1.01l.371-.384,3.272,2.806-.4.432a12.748,12.748,0,0,1-9.33,4.055Z" transform="translate(-27.69 -253.263)" fill="#40a459"/>
    <path id="Path_1591" data-name="Path 1591" d="M282,240.176l.324-.425a8.412,8.412,0,0,0,1.223-2.248h-6.271a.311.311,0,0,1-.311-.311v-3.7a.311.311,0,0,1,.311-.311h11.052l.037,1.459a12.641,12.641,0,0,1-2.727,7.876l-.365.465Z" transform="translate(-208.446 -166.759)" fill="#1d81ce"/>
    <g id="Group_94" data-name="Group 94" transform="translate(57.414 55.095)">
      <path id="SVGCleanerId_1-2" data-name="SVGCleanerId 1" d="M119.039,63.019A8.456,8.456,0,0,0,106.03,62l-.371.384-3.275-2.809.405-.432a12.751,12.751,0,0,1,19.937,1.617l.151.225a.311.311,0,0,1-.1.441l-3.189,1.88a.311.311,0,0,1-.412-.09Z" transform="translate(-102.384 -55.095)" fill="#cd2900"/>
    </g>
    <g id="Group_95" data-name="Group 95" transform="translate(54.359 59.518)">
      <path id="SVGCleanerId_2-2" data-name="SVGCleanerId 2" d="M55.989,139.219a12.757,12.757,0,0,1,1.106-14.132l.365-.464,3.275,2.809-.325.425A8.444,8.444,0,0,0,59.693,137l.255.47-3.67,2.268Z" transform="translate(-54.359 -124.623)" fill="#ffce00"/>
    </g>
    <g id="Group_96" data-name="Group 96" transform="translate(56.24 72.3)">
      <path id="SVGCleanerId_3-2" data-name="SVGCleanerId 3" d="M94.829,333.918a12.787,12.787,0,0,1-10.565-5.6l-.334-.49,3.671-2.269.307.436a8.455,8.455,0,0,0,13.012,1.01l.371-.384,3.272,2.806-.4.432a12.748,12.748,0,0,1-9.33,4.055Z" transform="translate(-83.93 -325.563)" fill="#40a459"/>
    </g>
    <path id="Path_1592" data-name="Path 1592" d="M282,240.176l.324-.425a8.412,8.412,0,0,0,1.223-2.248h-6.271a.311.311,0,0,1-.311-.311v-3.7a.311.311,0,0,1,.311-.311h10.785a.273.273,0,0,1,.273.267l.03,1.192a12.642,12.642,0,0,1-2.727,7.876l-.365.465Z" transform="translate(-208.446 -166.759)" fill="#1d81ce"/>
  </g>
</svg>
