<svg xmlns="http://www.w3.org/2000/svg" width="262.226" height="231.781" viewBox="0 0 262.226 231.781">
  <g id="heart_2_" data-name="heart (2)" transform="translate(0.5 0.5)" opacity="0.08">
    <g id="Group_718" data-name="Group 718" transform="translate(0 0)">
      <path id="Path_1595" data-name="Path 1595" d="M242.166,52.507a66.193,66.193,0,0,0-50.329-22.671c-27.525,0-44.951,16.439-54.722,30.23a100.155,100.155,0,0,0-6.5,10.543,100.079,100.079,0,0,0-6.5-10.543c-9.771-13.791-27.2-30.23-54.722-30.23A66.2,66.2,0,0,0,19.059,52.507C6.769,66.453,0,85.131,0,105.1c0,21.736,8.486,41.953,26.707,63.623,16.284,19.367,39.711,39.331,66.84,62.448,10.109,8.614,20.562,17.523,31.691,27.26l.334.293a7.654,7.654,0,0,0,10.082,0l.334-.293c11.129-9.737,21.583-18.645,31.693-27.261,27.127-23.115,50.554-43.079,66.838-62.447,18.22-21.67,26.707-41.886,26.707-63.623C261.226,85.131,254.457,66.453,242.166,52.507ZM157.752,219.519c-8.714,7.425-17.683,15.068-27.139,23.289-9.456-8.22-18.425-15.863-27.141-23.29C50.38,174.277,15.306,144.389,15.306,105.1c0-16.24,5.411-31.324,15.236-42.472A51.087,51.087,0,0,1,69.388,45.142c20.984,0,34.549,12.928,42.233,23.773a90.735,90.735,0,0,1,11.715,23.3,7.653,7.653,0,0,0,14.553,0,90.742,90.742,0,0,1,11.715-23.3c7.684-10.844,21.249-23.772,42.233-23.772a51.085,51.085,0,0,1,38.846,17.485c9.826,11.149,15.236,26.232,15.236,42.472C245.919,144.389,210.845,174.277,157.752,219.519Z" transform="translate(0 -29.836)" fill="#ff1d1d" stroke="#ff1d1d" stroke-width="1"/>
    </g>
  </g>
</svg>
