<svg xmlns="http://www.w3.org/2000/svg" width="18.101" height="18.062" viewBox="0 0 18.101 18.062">
  <g id="XMLID_801_" transform="translate(0.25 0.25)">
    <path id="XMLID_802_" d="M8.744,99.73H5.211a.284.284,0,0,0-.284.284v11.351a.284.284,0,0,0,.284.284H8.744a.284.284,0,0,0,.284-.284V100.014A.284.284,0,0,0,8.744,99.73Z" transform="translate(-4.647 -94.087)" fill="#4c616b" stroke="#fff" stroke-width="0.5"/>
    <path id="XMLID_803_" d="M2.332.341A2.329,2.329,0,1,0,4.661,2.67,2.333,2.333,0,0,0,2.332.341Z" transform="translate(0 -0.341)" fill="#4c616b" stroke="#fff" stroke-width="0.5"/>
    <path id="XMLID_804_" d="M113.232,94.761a4.15,4.15,0,0,0-3.1,1.3v-.737a.284.284,0,0,0-.284-.284H106.46a.284.284,0,0,0-.284.284v11.351a.284.284,0,0,0,.284.284h3.526a.284.284,0,0,0,.284-.284v-5.616c0-1.893.514-2.63,1.833-2.63,1.437,0,1.551,1.182,1.551,2.727v5.519a.284.284,0,0,0,.284.284h3.527a.284.284,0,0,0,.284-.284v-6.226C117.748,97.638,117.212,94.761,113.232,94.761Z" transform="translate(-100.148 -89.4)" fill="#4c616b" stroke="#fff" stroke-width="0.5"/>
  </g>
</svg>
