<svg xmlns="http://www.w3.org/2000/svg" width="18.82" height="21.135" viewBox="0 0 18.82 21.135">
  <g id="paperclip" transform="translate(-28.042 0)">
    <g id="Group_702" data-name="Group 702" transform="translate(28.042 0)">
      <path id="Path_97" data-name="Path 97" d="M45.322,1.539a5.271,5.271,0,0,0-7.446,0L30.037,9.379a.619.619,0,1,0,.876.876l7.839-7.839a4.124,4.124,0,0,1,5.694,0,4.031,4.031,0,0,1,0,5.693L33.5,19.179a2.536,2.536,0,0,1-3.5,0,2.48,2.48,0,0,1,0-3.5L40.5,5.043a.952.952,0,0,1,1.314,0,.931.931,0,0,1,0,1.314L31.748,16.551a.69.69,0,0,0,0,.876.619.619,0,0,0,.876,0L42.694,7.233a2.17,2.17,0,0,0,0-3.066,2.221,2.221,0,0,0-3.065,0L29.12,14.8a3.741,3.741,0,0,0,0,5.255,3.736,3.736,0,0,0,5.256,0L45.322,8.985A5.27,5.27,0,0,0,45.322,1.539Z" transform="translate(-28.041 0)" fill="#4c616b"/>
    </g>
  </g>
</svg>
