<svg xmlns="http://www.w3.org/2000/svg" width="19.882" height="16.159" viewBox="0 0 19.882 16.159">
  <path id="twitter" d="M6.253,16.658A11.527,11.527,0,0,0,17.859,5.052q0-.265-.012-.527a8.3,8.3,0,0,0,2.035-2.112,8.137,8.137,0,0,1-2.343.642A4.094,4.094,0,0,0,19.334.8a8.184,8.184,0,0,1-2.59.99,4.083,4.083,0,0,0-6.951,3.72A11.582,11.582,0,0,1,1.384,1.246,4.083,4.083,0,0,0,2.647,6.692,4.048,4.048,0,0,1,.8,6.182c0,.017,0,.034,0,.052a4.08,4.08,0,0,0,3.273,4,4.074,4.074,0,0,1-1.842.07A4.084,4.084,0,0,0,6.04,13.136,8.184,8.184,0,0,1,.973,14.882,8.317,8.317,0,0,1,0,14.826a11.547,11.547,0,0,0,6.253,1.832" transform="translate(0 -0.5)" fill="#4c616b"/>
</svg>
