<svg xmlns="http://www.w3.org/2000/svg" width="15.812" height="21.231" viewBox="0 0 15.812 21.231">
  <g id="Group_137" data-name="Group 137" transform="translate(0.125 0.125)">
    <path id="Path_115" data-name="Path 115" d="M1194.348,254.636h-1.721v-3.091a4.9,4.9,0,0,0-9.772,0v3.091h-1.641a1.174,1.174,0,0,0-1.214,1.128v11.088a1.175,1.175,0,0,0,1.214,1.129h13.134a1.175,1.175,0,0,0,1.214-1.129V255.764A1.174,1.174,0,0,0,1194.348,254.636Zm-10.59-3.091a3.994,3.994,0,0,1,7.967,0v3.091h-7.967Zm10.9,15.307a.3.3,0,0,1-.312.29h-13.134a.3.3,0,0,1-.312-.29V255.764a.3.3,0,0,1,.312-.289h13.134a.3.3,0,0,1,.312.289Z" transform="translate(-1180 -247)" fill="gray" stroke="gray" stroke-miterlimit="10" stroke-width="0.25"/>
    <path id="Path_116" data-name="Path 116" d="M1187.779,259.289a1.449,1.449,0,0,0-1.495,1.4,1.408,1.408,0,0,0,1.046,1.324v.9a.452.452,0,0,0,.9,0v-.9a1.408,1.408,0,0,0,1.047-1.323A1.452,1.452,0,0,0,1187.779,259.289Zm0,1.952a.557.557,0,1,1,.6-.556A.576.576,0,0,1,1187.779,261.241Z" transform="translate(-1180 -247)" fill="gray" stroke="gray" stroke-miterlimit="10" stroke-width="0.25"/>
  </g>
</svg>
